<?xml version="1.0" encoding="UTF-8"?>
<!DOCTYPE svg PUBLIC "-//W3C//DTD SVG 1.1//EN" "http://www.w3.org/Graphics/SVG/1.1/DTD/svg11.dtd">
<!-- Creator: CorelDRAW -->
<svg xmlns="http://www.w3.org/2000/svg" xml:space="preserve" width="66mm" height="55mm" style="shape-rendering:geometricPrecision; text-rendering:geometricPrecision; image-rendering:optimizeQuality; fill-rule:evenodd; clip-rule:evenodd"
viewBox="0 0 66 55"
 xmlns:xlink="http://www.w3.org/1999/xlink">
 <defs>
  <style type="text/css">
   <![CDATA[
    .str0 {stroke:#1F1A17;stroke-width:0.15}
    .fil0 {fill:none}
   ]]>
  </style>
 </defs>
 <g id="Слой_x0020_1">
  <metadata id="CorelCorpID_0Corel-Layer"/>
  <g id="_120817448">
   <path id="_119842832" class="fil0 str0" d="M26.9351 54.6028c-6.3221,0.0563 -12.4209,-2.1299 -17.2085,-6.169 -11.2472,-9.4884 -12.4943,-26.5193 -2.7827,-38.0318 5.1979,-6.1614 12.7977,-9.7622 20.7495,-9.833"/>
   <path id="_120815456" class="fil0 str0" d="M26.9351 54.6028c-6.3221,0.0563 -12.4209,-2.1299 -17.2085,-6.169 -11.2472,-9.4884 -12.4943,-26.5193 -2.7827,-38.0318 4.1329,-4.8988 9.8273,-8.2241 16.0692,-9.3814"/>
   <path id="_119843240" class="fil0 str0" d="M41.1226 0.7386c5.4895,0.4364 10.6855,2.5622 14.8636,6.0865 11.2474,9.4887 12.4945,26.5198 2.7829,38.0323 -5.1979,6.1615 -12.798,9.7613 -20.7495,9.8328"/>
   <path id="_119843480" class="fil0 str0" d="M38.0198 54.6902c-11.0852,-0.0875 -11.0852,-0.0875 -11.0852,-0.0875"/>
   <path id="_120136360" class="fil0 str0" d="M41.1226 0.7389c-13.3757,-0.1245 -13.3757,-0.1245 -13.3757,-0.1245"/>
  </g>
 </g>
</svg>
